<mxfile host="app.diagrams.net" modified="2024-07-05T07:41:05.200Z" agent="Mozilla/5.0 (Windows NT 10.0; Win64; x64) AppleWebKit/537.36 (KHTML, like Gecko) Chrome/126.0.0.0 Safari/537.36 Edg/126.0.0.0" etag="--zkwiMmWGi0JbGfPCxz" version="24.6.4" type="device">
  <diagram name="Página-1" id="Jfeygw6mbC96PbTLzPe2">
    <mxGraphModel dx="2025" dy="505" grid="1" gridSize="10" guides="1" tooltips="1" connect="1" arrows="1" fold="1" page="1" pageScale="1" pageWidth="827" pageHeight="1169" math="0" shadow="0">
      <root>
        <mxCell id="0" />
        <mxCell id="1" parent="0" />
        <mxCell id="wu3uk3ecE6fBr5I0Tk7Q-5" value="" style="edgeStyle=orthogonalEdgeStyle;rounded=0;orthogonalLoop=1;jettySize=auto;html=1;" edge="1" parent="1" source="wu3uk3ecE6fBr5I0Tk7Q-20" target="wu3uk3ecE6fBr5I0Tk7Q-3">
          <mxGeometry relative="1" as="geometry" />
        </mxCell>
        <mxCell id="wu3uk3ecE6fBr5I0Tk7Q-6" value="" style="edgeStyle=orthogonalEdgeStyle;rounded=0;orthogonalLoop=1;jettySize=auto;html=1;" edge="1" parent="1" source="wu3uk3ecE6fBr5I0Tk7Q-3" target="wu3uk3ecE6fBr5I0Tk7Q-4">
          <mxGeometry relative="1" as="geometry" />
        </mxCell>
        <mxCell id="wu3uk3ecE6fBr5I0Tk7Q-3" value="Dime un número" style="rounded=1;whiteSpace=wrap;html=1;" vertex="1" parent="1">
          <mxGeometry x="-500" y="190" width="120" height="60" as="geometry" />
        </mxCell>
        <mxCell id="wu3uk3ecE6fBr5I0Tk7Q-8" value="" style="edgeStyle=orthogonalEdgeStyle;rounded=0;orthogonalLoop=1;jettySize=auto;html=1;" edge="1" parent="1" source="wu3uk3ecE6fBr5I0Tk7Q-4" target="wu3uk3ecE6fBr5I0Tk7Q-7">
          <mxGeometry relative="1" as="geometry" />
        </mxCell>
        <mxCell id="wu3uk3ecE6fBr5I0Tk7Q-12" value="SÍ" style="edgeLabel;html=1;align=center;verticalAlign=middle;resizable=0;points=[];" vertex="1" connectable="0" parent="wu3uk3ecE6fBr5I0Tk7Q-8">
          <mxGeometry x="-0.4" y="1" relative="1" as="geometry">
            <mxPoint as="offset" />
          </mxGeometry>
        </mxCell>
        <mxCell id="wu3uk3ecE6fBr5I0Tk7Q-11" value="" style="edgeStyle=orthogonalEdgeStyle;rounded=0;orthogonalLoop=1;jettySize=auto;html=1;" edge="1" parent="1" source="wu3uk3ecE6fBr5I0Tk7Q-4" target="wu3uk3ecE6fBr5I0Tk7Q-10">
          <mxGeometry relative="1" as="geometry" />
        </mxCell>
        <mxCell id="wu3uk3ecE6fBr5I0Tk7Q-13" value="NO" style="edgeLabel;html=1;align=center;verticalAlign=middle;resizable=0;points=[];" vertex="1" connectable="0" parent="wu3uk3ecE6fBr5I0Tk7Q-11">
          <mxGeometry x="-0.16" y="1" relative="1" as="geometry">
            <mxPoint as="offset" />
          </mxGeometry>
        </mxCell>
        <mxCell id="wu3uk3ecE6fBr5I0Tk7Q-4" value="¿Es igual?" style="rhombus;whiteSpace=wrap;html=1;" vertex="1" parent="1">
          <mxGeometry x="-480" y="300" width="80" height="80" as="geometry" />
        </mxCell>
        <mxCell id="wu3uk3ecE6fBr5I0Tk7Q-7" value="¡Has acertado!" style="rounded=1;whiteSpace=wrap;html=1;" vertex="1" parent="1">
          <mxGeometry x="-500" y="430" width="120" height="60" as="geometry" />
        </mxCell>
        <mxCell id="wu3uk3ecE6fBr5I0Tk7Q-16" value="" style="edgeStyle=orthogonalEdgeStyle;rounded=0;orthogonalLoop=1;jettySize=auto;html=1;" edge="1" parent="1" source="wu3uk3ecE6fBr5I0Tk7Q-10" target="wu3uk3ecE6fBr5I0Tk7Q-14">
          <mxGeometry relative="1" as="geometry" />
        </mxCell>
        <mxCell id="wu3uk3ecE6fBr5I0Tk7Q-18" value="SÍ" style="edgeLabel;html=1;align=center;verticalAlign=middle;resizable=0;points=[];" vertex="1" connectable="0" parent="wu3uk3ecE6fBr5I0Tk7Q-16">
          <mxGeometry x="0.025" relative="1" as="geometry">
            <mxPoint as="offset" />
          </mxGeometry>
        </mxCell>
        <mxCell id="wu3uk3ecE6fBr5I0Tk7Q-17" value="" style="edgeStyle=orthogonalEdgeStyle;rounded=0;orthogonalLoop=1;jettySize=auto;html=1;" edge="1" parent="1" source="wu3uk3ecE6fBr5I0Tk7Q-10" target="wu3uk3ecE6fBr5I0Tk7Q-15">
          <mxGeometry relative="1" as="geometry" />
        </mxCell>
        <mxCell id="wu3uk3ecE6fBr5I0Tk7Q-19" value="&amp;nbsp;NO" style="edgeLabel;html=1;align=center;verticalAlign=middle;resizable=0;points=[];" vertex="1" connectable="0" parent="wu3uk3ecE6fBr5I0Tk7Q-17">
          <mxGeometry x="-0.32" relative="1" as="geometry">
            <mxPoint as="offset" />
          </mxGeometry>
        </mxCell>
        <mxCell id="wu3uk3ecE6fBr5I0Tk7Q-10" value="¿Es mayor?" style="rhombus;whiteSpace=wrap;html=1;" vertex="1" parent="1">
          <mxGeometry x="-340" y="300" width="80" height="80" as="geometry" />
        </mxCell>
        <mxCell id="wu3uk3ecE6fBr5I0Tk7Q-24" value="" style="edgeStyle=orthogonalEdgeStyle;rounded=0;orthogonalLoop=1;jettySize=auto;html=1;" edge="1" parent="1" source="wu3uk3ecE6fBr5I0Tk7Q-14" target="wu3uk3ecE6fBr5I0Tk7Q-22">
          <mxGeometry relative="1" as="geometry" />
        </mxCell>
        <mxCell id="wu3uk3ecE6fBr5I0Tk7Q-14" value="¡Es mayor!" style="rounded=1;whiteSpace=wrap;html=1;" vertex="1" parent="1">
          <mxGeometry x="-180" y="310" width="120" height="60" as="geometry" />
        </mxCell>
        <mxCell id="wu3uk3ecE6fBr5I0Tk7Q-23" value="" style="edgeStyle=orthogonalEdgeStyle;rounded=0;orthogonalLoop=1;jettySize=auto;html=1;" edge="1" parent="1" source="wu3uk3ecE6fBr5I0Tk7Q-15" target="wu3uk3ecE6fBr5I0Tk7Q-22">
          <mxGeometry relative="1" as="geometry" />
        </mxCell>
        <mxCell id="wu3uk3ecE6fBr5I0Tk7Q-15" value="¡Es menor!" style="rounded=1;whiteSpace=wrap;html=1;" vertex="1" parent="1">
          <mxGeometry x="-360" y="430" width="120" height="60" as="geometry" />
        </mxCell>
        <mxCell id="wu3uk3ecE6fBr5I0Tk7Q-21" value="" style="edgeStyle=orthogonalEdgeStyle;rounded=0;orthogonalLoop=1;jettySize=auto;html=1;" edge="1" parent="1" source="wu3uk3ecE6fBr5I0Tk7Q-28" target="wu3uk3ecE6fBr5I0Tk7Q-20">
          <mxGeometry relative="1" as="geometry">
            <mxPoint x="-440" y="60" as="sourcePoint" />
            <mxPoint x="-440" y="190" as="targetPoint" />
          </mxGeometry>
        </mxCell>
        <mxCell id="wu3uk3ecE6fBr5I0Tk7Q-20" value="" style="ellipse;whiteSpace=wrap;html=1;aspect=fixed;" vertex="1" parent="1">
          <mxGeometry x="-450" y="150" width="20" height="20" as="geometry" />
        </mxCell>
        <mxCell id="wu3uk3ecE6fBr5I0Tk7Q-22" value="" style="ellipse;whiteSpace=wrap;html=1;aspect=fixed;" vertex="1" parent="1">
          <mxGeometry x="-130" y="450" width="20" height="20" as="geometry" />
        </mxCell>
        <mxCell id="wu3uk3ecE6fBr5I0Tk7Q-27" value="" style="endArrow=classic;html=1;rounded=0;entryX=1;entryY=0.5;entryDx=0;entryDy=0;exitX=1;exitY=0.5;exitDx=0;exitDy=0;" edge="1" parent="1" source="wu3uk3ecE6fBr5I0Tk7Q-22" target="wu3uk3ecE6fBr5I0Tk7Q-20">
          <mxGeometry width="50" height="50" relative="1" as="geometry">
            <mxPoint x="-30" y="160" as="sourcePoint" />
            <mxPoint x="-40" y="60" as="targetPoint" />
            <Array as="points">
              <mxPoint x="-20" y="460" />
              <mxPoint x="-20" y="160" />
            </Array>
          </mxGeometry>
        </mxCell>
        <mxCell id="wu3uk3ecE6fBr5I0Tk7Q-28" value="Pensar el número a adivinar" style="rounded=1;whiteSpace=wrap;html=1;" vertex="1" parent="1">
          <mxGeometry x="-500" y="70" width="120" height="60" as="geometry" />
        </mxCell>
      </root>
    </mxGraphModel>
  </diagram>
</mxfile>
